<svg xmlns="http://www.w3.org/2000/svg" xmlns:svg="http://www.w3.org/2000/svg" id="svg8" width="789" height="337" version="1.1" viewBox="0 0 208.756 89.165"><metadata id="metadata5"/><g id="layer1" transform="translate(29.293007,-43.510632)"><g id="g24" transform="translate(-0.51011731,-0.35350656)"><path id="path52" d="m 69.872946,97.111534 c -0.329107,-0.419645 -0.319749,-0.429003 0.0999,-0.0999 0.44073,0.345644 0.580887,0.562917 0.363125,0.562917 -0.05494,0 -0.2633,-0.208359 -0.463021,-0.463021 z m 41.275004,-7.14375 c -0.32911,-0.419645 -0.31975,-0.429003 0.0999,-0.0999 0.44073,0.345644 0.58089,0.562917 0.36313,0.562917 -0.0549,0 -0.2633,-0.208359 -0.46302,-0.463021 z m 41.93892,-7.871354 c 5.3e-4,-1.74625 0.0434,-2.426195 0.0952,-1.510985 0.0518,0.915207 0.0514,2.343957 -0.001,3.175 -0.0523,0.83104 -0.0947,0.08223 -0.0942,-1.664015 z m -58.288451,2.094619 c 0.0127,-0.308226 0.07539,-0.370919 0.159851,-0.159853 0.07643,0.190994 0.06703,0.419198 -0.02088,0.507119 -0.08792,0.08792 -0.150452,-0.06835 -0.138964,-0.347266 z M 82.83753,83.617784 c -0.329108,-0.419645 -0.319749,-0.429003 0.0999,-0.0999 0.440729,0.345644 0.580887,0.562917 0.363124,0.562917 -0.05494,0 -0.2633,-0.208359 -0.46302,-0.463021 z M -4.7395551,78.590701 c -0.3291076,-0.419645 -0.3197493,-0.429003 0.099895,-0.0999 0.2546615,0.199721 0.4630209,0.40808 0.4630209,0.463021 0,0.217762 -0.2172722,0.0776 -0.5629156,-0.363125 z m 52.9166671,0 c -0.329107,-0.419645 -0.319749,-0.429003 0.0999,-0.0999 0.254661,0.199721 0.463021,0.40808 0.463021,0.463021 0,0.217762 -0.217273,0.0776 -0.562917,-0.363125 z M 158.08501,77.730805 c 0,-0.654844 0.0516,-0.922734 0.11466,-0.595312 0.0631,0.327421 0.0631,0.863203 0,1.190625 -0.0631,0.327421 -0.11466,0.05953 -0.11466,-0.595313 z" style="fill:#e3e3e3;fill-opacity:1;stroke-width:1"/><path id="path50" d="m 169.52232,80.905805 c 0,-2.328333 0.0893,-4.233333 0.19844,-4.233333 0.10914,0 0.19844,1.905 0.19844,4.233333 0,2.328333 -0.0893,4.233333 -0.19844,4.233333 -0.10914,0 -0.19844,-1.905 -0.19844,-4.233333 z m -27.27722,3.108854 -0.50403,-0.595312 0.59532,0.504028 c 0.55944,0.473663 0.71576,0.686597 0.50402,0.686597 -0.0502,0 -0.31809,-0.267891 -0.59531,-0.595313 z" style="fill:#e0e0e0;fill-opacity:1;stroke-width:1"/><path id="path48" d="m 144.83536,90.82768 c 0.005,-0.436563 0.0647,-0.583126 0.13178,-0.325694 0.0671,0.257431 0.0627,0.614619 -0.01,0.79375 -0.0725,0.179131 -0.12736,-0.03149 -0.12197,-0.468056 z" style="fill:#dedede;fill-opacity:1;stroke-width:1"/><path id="path46" d="m 2.290587,90.298513 c -1.191e-4,-4.365625 0.036129,-6.188686 0.08055,-4.051249 0.044421,2.137439 0.044519,5.709314 2.17e-4,7.9375 -0.044304,2.228188 -0.080648,0.479374 -0.080767,-3.886251 z m 52.916668,0 c -1.19e-4,-4.365625 0.03613,-6.188686 0.08055,-4.051249 0.04442,2.137439 0.04452,5.709314 2.17e-4,7.9375 -0.0443,2.228188 -0.08065,0.479374 -0.08077,-3.886251 z M 2.2623162,77.995388 c 0,-1.091406 0.046702,-1.53789 0.1037855,-0.992187 0.057081,0.545703 0.057081,1.438672 0,1.984375 -0.057084,0.545703 -0.1037855,0.09922 -0.1037855,-0.992188 z" style="fill:#dbdbdb;fill-opacity:1;stroke-width:1"/><path id="path44" d="m 144.07472,95.722472 c 0,-0.945886 0.048,-1.332839 0.10671,-0.859896 0.0587,0.472942 0.0587,1.246849 0,1.719791 -0.0587,0.472943 -0.10671,0.08599 -0.10671,-0.859895 z" style="fill:#d5d5d5;fill-opacity:1;stroke-width:1"/><path id="path42" d="m -19.930936,87.520388 c 0,-5.893593 0.03484,-8.304609 0.07742,-5.357812 0.04258,2.946797 0.04258,7.768828 0,10.715625 -0.04258,2.946797 -0.07742,0.535781 -0.07742,-5.357813 z m 52.916667,0 c 0,-5.893593 0.03484,-8.304609 0.07742,-5.357812 0.04258,2.946797 0.04258,7.768828 0,10.715625 -0.04258,2.946797 -0.07742,0.535781 -0.07742,-5.357813 z" style="fill:#d0d0d0;fill-opacity:1;stroke-width:1"/><path id="path40" d="m 84.832684,93.473513 c 2.64e-4,-2.619375 0.03987,-3.65515 0.08799,-2.301721 0.04812,1.353428 0.04789,3.496553 -5.29e-4,4.7625 -0.04839,1.265946 -0.08776,0.158596 -0.08749,-2.460779 z" style="fill:#cdcdcd;fill-opacity:1;stroke-width:1"/><path id="path38" d="m 167.37342,81.964138 c 0,-1.673489 0.043,-2.358099 0.0955,-1.521354 0.0525,0.836745 0.0525,2.205964 0,3.042709 -0.0525,0.836744 -0.0955,0.152135 -0.0955,-1.521355 z" style="fill:#cacaca;fill-opacity:1;stroke-width:1"/><path id="path36" d="m 69.991381,84.345388 c 0,-0.945885 0.04802,-1.332838 0.106715,-0.859895 0.05869,0.472942 0.05869,1.246848 0,1.719791 -0.05869,0.472943 -0.106715,0.08599 -0.106715,-0.859896 z m -2.974213,-1.741839 c 0.0127,-0.308226 0.07539,-0.370919 0.159851,-0.159853 0.07643,0.190994 0.06703,0.419198 -0.02088,0.507119 -0.08792,0.08792 -0.150452,-0.06835 -0.138964,-0.347266 z M 150.666,77.730805 c 0,-0.509323 0.0545,-0.717682 0.121,-0.463021 0.0666,0.254662 0.0666,0.67138 0,0.926042 -0.0666,0.254661 -0.121,0.0463 -0.121,-0.463021 z" style="fill:#c7c7c7;fill-opacity:1;stroke-width:1"/><path id="path34" d="m 67.080965,84.609972 c 0,-0.945886 0.04802,-1.332839 0.106714,-0.859896 0.05869,0.472943 0.05869,1.246849 0,1.719792 -0.05869,0.472942 -0.106714,0.08599 -0.106714,-0.859896 z" style="fill:#c4c4c4;fill-opacity:1;stroke-width:1"/><path id="path32" d="m 117.48209,98.716732 c 0.19099,-0.07643 0.4192,-0.06703 0.50712,0.02088 0.0879,0.08792 -0.0684,0.150452 -0.34727,0.138964 -0.30822,-0.0127 -0.37092,-0.07539 -0.15985,-0.159851 z M 79.763002,97.17768 c 0.0029,-0.582083 0.05712,-0.789054 0.120407,-0.459936 0.06329,0.329118 0.06088,0.805368 -0.0053,1.058333 -0.06622,0.252966 -0.118004,-0.01632 -0.115067,-0.598397 z M 155.46812,81.831847 c 5.3e-4,-1.74625 0.0434,-2.426195 0.0952,-1.510985 0.0518,0.915207 0.0514,2.343957 -0.001,3.175 -0.0523,0.83104 -0.0947,0.08223 -0.0942,-1.664015 z" style="fill:#bfbfbf;fill-opacity:1;stroke-width:1"/><path id="path30" d="m 114.02597,98.45766 c 0.1819,-0.0734 0.47956,-0.0734 0.66146,0 0.1819,0.0734 0.0331,0.133453 -0.33073,0.133453 -0.3638,0 -0.51263,-0.06006 -0.33073,-0.133453 z m 5.57279,-0.0055 c 0.19099,-0.07643 0.4192,-0.06703 0.50711,0.02088 0.0879,0.08792 -0.0683,0.150453 -0.34726,0.138965 -0.30823,-0.0127 -0.37092,-0.07539 -0.15985,-0.159851 z m 19.56263,0.0055 c 0.1819,-0.0734 0.47955,-0.0734 0.66145,0 0.18191,0.0734 0.0331,0.133453 -0.33072,0.133453 -0.36381,0 -0.51264,-0.06006 -0.33073,-0.133453 z M -17.617627,98.1715 c 1.265947,-0.04839 3.409072,-0.04862 4.7625,-5.29e-4 1.353428,0.04812 0.317654,0.08771 -2.301721,0.08799 -2.619375,2.64e-4 -3.726726,-0.03909 -2.460779,-0.08749 z m 22.5029669,0.0033 2.3151043,-0.09095 v -7.785351 -7.785352 l -2.447396,-0.0927 -2.4473959,-0.0927 2.5135418,0.01662 2.5135417,0.01664 v 7.9375 7.9375 l -2.38125,0.01487 -2.3812501,0.01487 2.3151042,-0.09096 z M 35.299042,98.1715 c 1.265946,-0.04839 3.409071,-0.04862 4.7625,-5.29e-4 1.353428,0.04812 0.317653,0.08771 -2.301722,0.08799 -2.619375,2.64e-4 -3.726725,-0.03909 -2.460778,-0.08749 z m 22.496614,0.0034 2.308751,-0.09087 0.08239,-4.356034 0.08239,-4.356036 -0.0099,4.432027 -0.0099,4.432014 -2.38125,0.01487 -2.38125,0.01487 2.308752,-0.09087 z m 23.289686,-0.0011 c 0.691224,-0.0545 1.822318,-0.0545 2.513542,0 0.691224,0.0545 0.125677,0.0991 -1.256771,0.0991 -1.382448,0 -1.947995,-0.04459 -1.256771,-0.0991 z m 19.884648,-0.172789 c -0.0819,-0.2134 -0.0962,-0.664546 -0.0317,-1.002551 0.0892,-0.467897 0.12578,-0.409348 0.15322,0.24534 l 0.036,0.859867 h 2.24896 2.24896 V 90.298458 82.49325 h -2.24256 -2.24256 l -0.0827,4.431771 -0.0827,4.431771 0.0102,-4.497917 0.0102,-4.497917 h 2.38125 2.38125 v 7.9375 7.9375 l -2.31943,0.07651 c -1.84463,0.06085 -2.34991,-0.0029 -2.46832,-0.311486 z M -8.194999,97.922982 c 0.1909961,-0.07643 0.4191992,-0.06703 0.5071181,0.02088 0.087919,0.08792 -0.068351,0.150452 -0.3472656,0.138964 -0.3082245,-0.0127 -0.3709194,-0.07539 -0.1598525,-0.159851 z m 52.916668,0 c 0.190995,-0.07643 0.419201,-0.06703 0.507119,0.02088 0.08792,0.08792 -0.06835,0.150452 -0.347265,0.138964 -0.308227,-0.0127 -0.37092,-0.07539 -0.159854,-0.159851 z m 65.842671,-0.260234 c -0.2429,-0.242898 -0.22345,-3.202881 0.022,-3.354604 0.10914,-0.06745 0.19843,0.699426 0.19843,1.704176 0,1.00475 -0.01,1.826818 -0.022,1.826818 -0.0121,0 -0.10142,-0.07937 -0.19843,-0.17639 z M 75.664469,95.535342 c 0.329118,-0.06328 0.805368,-0.06088 1.058333,0.0053 0.252966,0.06622 -0.01632,0.118004 -0.598397,0.115067 -0.582084,-0.0029 -0.789054,-0.05712 -0.459936,-0.120406 z m 39.943101,-0.0038 c 0.46969,-0.05845 1.30313,-0.05941 1.85208,-0.0021 0.54895,0.05728 0.16465,0.105098 -0.85399,0.106273 -1.01865,0.0011 -1.46779,-0.04569 -0.99809,-0.104138 z m 21.1773,-7.94e-4 c 0.47555,-0.05888 1.18993,-0.05767 1.5875,0.0027 0.39758,0.06037 0.008,0.108551 -0.86463,0.107066 -0.87313,-0.0016 -1.19841,-0.05088 -0.72287,-0.109765 z M 19.5728,95.270751 c 0.329118,-0.06329 0.805368,-0.06088 1.058334,0.0053 0.252965,0.06622 -0.01632,0.118004 -0.598398,0.115067 -0.582083,-0.0029 -0.789053,-0.05712 -0.459936,-0.120407 z m 77.258336,-0.264583 c 0.329118,-0.06329 0.805368,-0.06088 1.058334,0.0053 0.252965,0.06622 -0.01633,0.118005 -0.598398,0.115068 -0.582083,-0.0029 -0.789054,-0.05712 -0.459936,-0.120407 z m -111.47691,-0.426061 c -0.07358,-0.191741 -0.09961,-1.590726 -0.05784,-3.108855 l 0.07593,-2.760239 2.381251,-0.01736 2.3812496,-0.01736 -2.3151046,0.09381 -2.315104,0.0938 v 2.889814 2.889813 l 2.315104,0.08819 2.3151046,0.08819 -2.3234086,0.05441 c -1.718156,0.04023 -2.358257,-0.03641 -2.457184,-0.294206 z m 52.916669,0 c -0.07358,-0.191741 -0.09961,-1.590726 -0.05784,-3.108855 l 0.07594,-2.760239 2.38125,-0.01736 2.38125,-0.01736 -2.315104,0.09381 -2.315105,0.09381 v 2.889814 2.889813 l 2.315105,0.08819 2.315104,0.08819 -2.323407,0.05441 c -1.718156,0.04023 -2.358258,-0.03641 -2.457185,-0.294207 z m 86.215645,-1.106594 c 0.002,-0.727604 0.0534,-0.993857 0.11418,-0.591674 0.0608,0.402182 0.0592,0.997495 -0.004,1.322916 -0.0628,0.325422 -0.11256,-0.0036 -0.11058,-0.731242 z m -55.841377,0.132292 c 0,-0.509323 0.05445,-0.717682 0.121002,-0.463021 0.06655,0.254662 0.06655,0.67138 0,0.926042 -0.06655,0.254661 -0.121002,0.0463 -0.121002,-0.463021 z m 51.288677,0.110244 c 0.0127,-0.308226 0.0754,-0.370919 0.15985,-0.159853 0.0764,0.190994 0.067,0.419197 -0.0209,0.507119 -0.0879,0.08792 -0.15045,-0.06835 -0.13896,-0.347266 z M -2.5098544,92.282888 c 0,-0.800364 0.049601,-1.127786 0.1102227,-0.727604 0.060624,0.400182 0.060624,1.055026 0,1.455208 -0.060621,0.400183 -0.1102227,0.07276 -0.1102227,-0.727604 z m 52.9166684,0 c 0,-0.800364 0.0496,-1.127786 0.110223,-0.727604 0.06062,0.400182 0.06062,1.055026 0,1.455208 -0.06062,0.400183 -0.110223,0.07276 -0.110223,-0.727604 z m 39.467873,-4.497916 0.008,-5.423959 h 2.38125 2.38125 l 0.0089,4.7625 0.0089,4.7625 -0.08107,-4.696354 -0.08107,-4.696354 H 92.263361 90.02574 l -0.07957,5.357813 -0.07957,5.357812 0.008,-5.423958 z m -78.420021,4.872744 c 0.0127,-0.308227 0.07539,-0.37092 0.159851,-0.159854 0.07643,0.190995 0.06703,0.419198 -0.02088,0.507119 -0.08792,0.08792 -0.150453,-0.06835 -0.138965,-0.347265 z m 68.283389,-0.374828 c 0,-0.363802 0.06005,-0.51263 0.133453,-0.330729 0.0734,0.181901 0.0734,0.479557 0,0.661458 -0.0734,0.181902 -0.133453,0.03307 -0.133453,-0.330729 z m 52.895785,0.110244 c 0.0127,-0.308226 0.0754,-0.370919 0.15985,-0.159853 0.0764,0.190995 0.067,0.419198 -0.0209,0.507119 -0.0879,0.08792 -0.15045,-0.06835 -0.13896,-0.347266 z M 116.6718,91.843077 c 0.1819,-0.0734 0.47956,-0.0734 0.66146,0 0.1819,0.0734 0.0331,0.133453 -0.33073,0.133453 -0.3638,0 -0.51263,-0.06005 -0.33073,-0.133453 z m -1.57096,-0.270095 c 0.19099,-0.07643 0.4192,-0.06703 0.50712,0.02088 0.0879,0.08792 -0.0684,0.150452 -0.34727,0.138964 -0.30822,-0.0127 -0.37092,-0.07539 -0.15985,-0.15985 z m 20.76818,-0.01699 c 1.71808,-0.04616 4.45652,-0.04601 6.08542,2.64e-4 1.6289,0.04635 0.2232,0.08411 -3.12378,0.08392 -3.34698,-1.86e-4 -4.67972,-0.0381 -2.96164,-0.08426 z M 11.244868,90.298513 c 0.0021,-0.727604 0.05337,-0.993857 0.114186,-0.591674 0.06082,0.402182 0.05919,0.997495 -0.0036,1.322917 -0.0628,0.325421 -0.112559,-0.0036 -0.110575,-0.731243 z m 5.027083,0 c 0.0021,-0.727604 0.05337,-0.993857 0.114186,-0.591674 0.06082,0.402182 0.05919,0.997495 -0.0036,1.322917 -0.0628,0.325421 -0.112559,-0.0036 -0.110575,-0.731243 z m 7.408334,0 c 0.0021,-0.727604 0.05337,-0.993857 0.114186,-0.591674 0.06082,0.402182 0.05919,0.997495 -0.0036,1.322917 -0.0628,0.325421 -0.112559,-0.0036 -0.110575,-0.731243 z m 103.981255,0 c 0.002,-0.727604 0.0534,-0.993857 0.11418,-0.591674 0.0608,0.402182 0.0592,0.997495 -0.004,1.322917 -0.0628,0.325421 -0.11256,-0.0036 -0.11058,-0.731243 z m -98.963123,0 c 0.0029,-0.582083 0.05712,-0.789053 0.120407,-0.459935 0.06329,0.329117 0.06088,0.805367 -0.0053,1.058333 -0.06622,0.252965 -0.118004,-0.01633 -0.115067,-0.598398 z m 48.028293,0.73197 c 0.622311,-0.05589 1.574811,-0.0551 2.116667,0.0019 0.541856,0.05685 0.03269,0.102582 -1.131472,0.101621 -1.164167,-0.0011 -1.607505,-0.04748 -0.985195,-0.10337 z m 67.84407,-1.790303 c 0.005,-0.436563 0.0647,-0.583126 0.13177,-0.325694 0.0671,0.257431 0.0627,0.614619 -0.01,0.79375 -0.0725,0.179131 -0.12737,-0.03149 -0.12197,-0.468056 z m -11.78144,-0.573265 c -0.097,-0.09701 -0.17457,-0.305371 -0.17234,-0.463021 0.002,-0.176278 0.0829,-0.16261 0.20874,0.03551 0.13791,0.217038 1.28034,0.349436 3.50168,0.405813 l 3.29699,0.08367 -3.32934,0.05721 c -1.83114,0.03146 -3.40872,-0.02217 -3.50573,-0.119182 z M 73.544717,88.403493 c 0.181901,-0.0734 0.479557,-0.0734 0.661458,0 0.181902,0.0734 0.03307,0.133454 -0.330729,0.133454 -0.363802,0 -0.51263,-0.06006 -0.330729,-0.133454 z m 44.731123,-0.0055 c 0.19099,-0.07643 0.4192,-0.06703 0.50712,0.02088 0.0879,0.08792 -0.0684,0.150452 -0.34727,0.138964 -0.30822,-0.0127 -0.37092,-0.07539 -0.15985,-0.15985 z M 11.454666,87.895224 c 0.0127,-0.308227 0.07539,-0.37092 0.159851,-0.159854 0.07643,0.190995 0.06703,0.419198 -0.02088,0.507119 -0.08792,0.08792 -0.150453,-0.06835 -0.138965,-0.347265 z m 65.794218,0.227515 c 0.472943,-0.05869 1.246849,-0.05869 1.719792,0 0.472942,0.05869 0.08599,0.106714 -0.859896,0.106714 -0.945886,0 -1.332839,-0.04802 -0.859896,-0.106714 z m 39.174866,0.01066 c 0.191,-0.07643 0.41921,-0.06703 0.50712,0.02088 0.0879,0.08792 -0.0683,0.150453 -0.34726,0.138965 -0.30823,-0.0127 -0.37092,-0.07539 -0.15986,-0.159851 z M 84.479669,87.366052 c 0.0127,-0.308227 0.07539,-0.37092 0.15985,-0.159854 0.07643,0.190995 0.06703,0.419198 -0.02088,0.507119 -0.08792,0.08792 -0.150453,-0.06835 -0.138965,-0.347265 z m -4.7625,-0.264584 c 0.0127,-0.308226 0.07539,-0.370919 0.15985,-0.159853 0.07643,0.190995 0.06703,0.419198 -0.02088,0.507119 -0.08792,0.08792 -0.150453,-0.06835 -0.138965,-0.347266 z m 30.467581,-0.37483 c 0,-0.509323 0.0545,-0.717682 0.121,-0.46302 0.0665,0.254661 0.0665,0.67138 0,0.926041 -0.0666,0.254662 -0.121,0.0463 -0.121,-0.463021 z m 4.19284,-0.154339 c 0.0127,-0.308226 0.0754,-0.370919 0.15985,-0.159853 0.0764,0.190994 0.067,0.419198 -0.0209,0.507119 -0.0879,0.08792 -0.15045,-0.06835 -0.13896,-0.347266 z m 8.84265,-2.226911 c 0,-0.990854 0.0893,-1.746363 0.19844,-1.678911 0.10914,0.06745 0.19843,0.822963 0.19843,1.678911 0,0.855949 -0.0893,1.611458 -0.19843,1.678911 -0.10914,0.06745 -0.19844,-0.688057 -0.19844,-1.678911 z m -59.332815,1.397993 c 0.400182,-0.06062 1.055026,-0.06062 1.455209,0 0.400182,0.06062 0.07276,0.110222 -0.727605,0.110222 -0.800364,0 -1.127786,-0.0496 -0.727604,-0.110222 z m -78.534822,-0.692505 c -0.07447,-0.194064 -0.100499,-1.354923 -0.05784,-2.579687 l 0.07756,-2.226842 2.116667,-0.01603 2.116667,-0.01603 -2.050521,0.09288 -2.050521,0.09288 v 2.35985 2.359851 l 2.182813,0.08913 2.182812,0.08914 -2.191116,0.05385 c -1.621251,0.03985 -2.226331,-0.03791 -2.326516,-0.298989 z M 19.5728,85.216592 c 0.329118,-0.06329 0.805368,-0.06088 1.058334,0.0053 0.252965,0.06622 -0.01632,0.118004 -0.598398,0.115067 -0.582083,-0.0029 -0.789053,-0.05712 -0.459936,-0.120406 z M 38.26927,85.050876 C 38.1948,84.856812 38.168773,83.695953 38.21143,82.471189 l 0.07756,-2.226842 2.116667,-0.01603 2.116666,-0.01603 -2.050521,0.09288 -2.050521,0.09288 v 2.35985 2.359851 l 2.182813,0.08913 2.182813,0.08914 -2.191116,0.05385 c -1.621253,0.03985 -2.226331,-0.03791 -2.326518,-0.298989 z m 36.32788,-0.102695 c 0.469697,-0.05845 1.303134,-0.05941 1.852084,-0.0021 0.548947,0.05728 0.16465,0.105098 -0.853996,0.106273 -1.018646,0.0011 -1.467787,-0.04569 -0.998088,-0.104138 z m 42.33924,-5.3e-4 c 0.47294,-0.05869 1.24684,-0.05869 1.71979,0 0.47294,0.05869 0.086,0.106715 -0.8599,0.106715 -0.94588,0 -1.33284,-0.04802 -0.85989,-0.106715 z m 19.05308,0.0043 c 0.32912,-0.06328 0.80537,-0.06088 1.05833,0.0053 0.25297,0.06622 -0.0163,0.118004 -0.59839,0.115067 -0.58209,-0.0029 -0.78906,-0.05712 -0.45994,-0.120406 z m 17.43737,0.01074 c -0.097,-0.09692 -0.17639,-1.519145 -0.17639,-3.160408 v -2.984114 l -1.25677,-0.107656 -1.25677,-0.107656 1.32291,0.02701 1.32292,0.02701 0.0744,3.093376 0.0744,3.093373 0.98392,0.103293 0.98393,0.103294 -0.94809,0.04448 c -0.52145,0.02447 -1.02747,-0.0349 -1.12448,-0.131913 z m 6.56076,-0.150407 c -0.0758,-0.197448 -0.10457,-2.079927 -0.064,-4.183288 l 0.0737,-3.824195 1.32292,-0.02064 1.32292,-0.02064 -1.25677,0.100619 -1.25677,0.100618 v 3.954923 3.954923 h 0.91737 0.91738 l 0.0884,-2.910909 0.0884,-2.910906 -0.0136,2.977052 -0.0136,2.977039 -0.99432,0.08224 c -0.65483,0.05416 -1.04135,-0.04032 -1.13207,-0.276749 z m 8.41025,0.143936 0.99218,-0.113665 v -3.938953 -3.93895 l -1.38906,-0.105206 -1.38906,-0.105206 1.45521,0.02524 1.4552,0.02524 v 4.101042 4.101041 l -1.05833,0.03155 -1.05833,0.03155 0.99219,-0.113665 z M 60.161589,83.760044 60.117109,82.5132 57.669713,82.42589 55.222317,82.33858 57.678015,82.28367 c 2.739478,-0.06126 2.811106,-0.01492 2.633493,1.703203 -0.100967,0.976704 -0.107333,0.967073 -0.149923,-0.22683 z M -8.6536683,83.397299 c 0.012695,-0.308226 0.075391,-0.370919 0.1598525,-0.159853 0.076431,0.190994 0.067031,0.419198 -0.020889,0.507119 -0.087919,0.08792 -0.150453,-0.06835 -0.1389645,-0.347266 z m 52.9166693,0 c 0.0127,-0.308226 0.07539,-0.370919 0.159851,-0.159853 0.07643,0.190994 0.06703,0.419198 -0.02088,0.507119 -0.08792,0.08792 -0.150453,-0.06835 -0.138965,-0.347266 z M -3.3313093,82.361013 c 0.00539,-0.436562 0.06469,-0.583125 0.1317737,-0.325694 0.067083,0.257432 0.062672,0.614619 -0.0098,0.79375 -0.072477,0.179131 -0.1273631,-0.03149 -0.1219709,-0.468056 z m 52.9166683,0 c 0.0054,-0.436562 0.06469,-0.583125 0.131773,-0.325694 0.06708,0.257432 0.06267,0.614619 -0.0098,0.79375 -0.07248,0.179131 -0.127362,-0.03149 -0.12197,-0.468056 z M -8.6536683,82.074382 c 0.012695,-0.308226 0.075391,-0.370919 0.1598525,-0.159853 0.076431,0.190995 0.067031,0.419198 -0.020889,0.507119 -0.087919,0.08792 -0.150453,-0.06835 -0.1389645,-0.347266 z m 52.9166693,0 c 0.0127,-0.308226 0.07539,-0.370919 0.159851,-0.159853 0.07643,0.190995 0.06703,0.419198 -0.02088,0.507119 -0.08792,0.08792 -0.150453,-0.06835 -0.138965,-0.347266 z m 27.181586,0.238184 c 0.190995,-0.07643 0.4192,-0.06703 0.507119,0.02087 0.08792,0.08792 -0.06835,0.150453 -0.347266,0.138965 -0.308226,-0.0127 -0.370919,-0.07539 -0.159853,-0.159851 z m 92.826953,-0.0177 c -0.0674,-0.109141 0.15227,-0.198438 0.48828,-0.198438 0.33601,0 0.55574,0.0893 0.48829,0.198438 -0.0675,0.10914 -0.28718,0.198437 -0.48829,0.198437 -0.2011,0 -0.42083,-0.0893 -0.48828,-0.198437 z m -91.118663,-0.2495 c 0.257432,-0.06708 0.614619,-0.06267 0.79375,0.0098 0.179131,0.07248 -0.03149,0.127363 -0.468056,0.12197 -0.436562,-0.0054 -0.583126,-0.06469 -0.325694,-0.131773 z m 5.964627,0.0026 c 0.190995,-0.07643 0.4192,-0.06703 0.507119,0.02088 0.08792,0.08792 -0.06835,0.150452 -0.347266,0.138964 -0.308226,-0.0127 -0.370919,-0.07539 -0.159853,-0.159851 z m 35.454166,0 c 0.191,-0.07643 0.4192,-0.06703 0.50712,0.02088 0.0879,0.08792 -0.0683,0.150452 -0.34727,0.138964 -0.30822,-0.0127 -0.37091,-0.07539 -0.15985,-0.159851 z m 5.27513,0.0055 c 0.1819,-0.0734 0.47956,-0.0734 0.66146,0 0.1819,0.0734 0.0331,0.133453 -0.33073,0.133453 -0.3638,0 -0.51263,-0.06006 -0.33073,-0.133453 z m 14.30404,-0.0055 c 0.19099,-0.07643 0.4192,-0.06703 0.50712,0.02088 0.0879,0.08792 -0.0684,0.150452 -0.34727,0.138964 -0.30822,-0.0127 -0.37092,-0.07539 -0.15985,-0.159851 z m 4.23333,0 c 0.191,-0.07643 0.4192,-0.06703 0.50712,0.02088 0.0879,0.08792 -0.0684,0.150452 -0.34726,0.138964 -0.30823,-0.0127 -0.37092,-0.07539 -0.15986,-0.159851 z M 4.8853399,79.918568 7.2004442,79.827615 v -1.832227 -1.832226 l -2.447396,-0.0927 -2.4473959,-0.0927 2.5135418,0.01661 2.5135417,0.01664 v 1.984375 1.984375 l -2.38125,0.01487 -2.3812501,0.01487 2.3151042,-0.09096 z M 156.68807,78.60144 c 0.97017,-0.09819 1.0603,-0.172839 1.0603,-0.878168 v -0.770858 l -3.43997,-0.0858 -3.43996,-0.0858 3.50611,0.01199 3.50611,0.01199 v 0.926041 c 0,0.909262 -0.0204,0.926513 -1.12645,0.951995 l -1.12644,0.02596 1.0603,-0.107313 z M -9.0052855,77.02641 c 0.181901,-0.0734 0.4795573,-0.0734 0.6614583,0 0.1819011,0.0734 0.033073,0.133453 -0.3307291,0.133453 -0.3638021,0 -0.5126303,-0.06006 -0.3307292,-0.133453 z m 52.9166685,0 c 0.181901,-0.0734 0.479557,-0.0734 0.661458,0 0.181901,0.0734 0.03307,0.133453 -0.330729,0.133453 -0.363802,0 -0.51263,-0.06006 -0.330729,-0.133453 z m -61.647919,-0.286202 c 1.200547,-0.04903 3.165078,-0.04903 4.365625,0 1.200547,0.04903 0.218282,0.08914 -2.182812,0.08914 -2.401094,0 -3.38336,-0.04011 -2.182813,-0.08914 z m 52.916669,0 c 1.200546,-0.04903 3.165078,-0.04903 4.365625,0 1.200547,0.04903 0.218281,0.08914 -2.182813,0.08914 -2.401094,0 -3.383359,-0.04011 -2.182812,-0.08914 z" style="fill:#bcbcbc;fill-opacity:1;stroke-width:1"/><path id="path28" d="m 70.151253,97.111534 -0.641432,-0.727604 0.727604,0.641432 c 0.680056,0.599517 0.84894,0.813776 0.641432,0.813776 -0.04739,0 -0.374814,-0.327422 -0.727604,-0.727604 z m 8.22211,-0.198437 c 0.493654,-0.509323 0.957085,-0.926042 1.029846,-0.926042 0.07276,0 -0.271608,0.416719 -0.765263,0.926042 -0.493654,0.509323 -0.957085,0.926041 -1.029845,0.926041 -0.07276,0 0.271608,-0.416718 0.765262,-0.926041 z m 21.166667,0 c 0.341776,-0.363802 0.68094,-0.661459 0.7537,-0.661459 0.0728,0 -0.14734,0.297657 -0.489116,0.661459 -0.341776,0.363802 -0.68094,0.661458 -0.7537,0.661458 -0.07276,0 0.147341,-0.297656 0.489116,-0.661458 z m 23.68021,-0.132292 c 0.26339,-0.291042 0.53842,-0.529167 0.61118,-0.529167 0.0728,0 -0.0832,0.238125 -0.3466,0.529167 -0.26339,0.291042 -0.53842,0.529167 -0.61118,0.529167 -0.0728,0 0.0832,-0.238125 0.3466,-0.529167 z m -109.818732,-0.595313 -0.777105,-0.859895 0.859896,0.777105 c 0.801544,0.724371 0.981511,0.942686 0.777105,0.942686 -0.04554,0 -0.432488,-0.386953 -0.859896,-0.859896 z m 12.31977,0.777105 c 0,-0.04553 0.386953,-0.432487 0.859896,-0.859895 l 0.859896,-0.777105 -0.777105,0.859895 c -0.724371,0.801545 -0.942687,0.981512 -0.942687,0.777105 z m 104.088402,-0.777105 -0.50402,-0.595312 0.59531,0.504029 c 0.55944,0.473662 0.71576,0.686596 0.50403,0.686596 -0.0502,0 -0.3181,-0.267891 -0.59532,-0.595313 z M -3.9120562,95.887159 c 0,-0.05494 0.2083594,-0.2633 0.4630209,-0.463021 0.419644,-0.329107 0.4290023,-0.319749 0.099895,0.0999 -0.3456435,0.44073 -0.5629156,0.580888 -0.5629156,0.363125 z m 52.9166682,0 c 0,-0.05494 0.20836,-0.2633 0.463021,-0.463021 0.419645,-0.329107 0.429003,-0.319749 0.0999,0.0999 -0.345644,0.44073 -0.562917,0.580888 -0.562917,0.363125 z m 24.977988,-1.024583 -0.504029,-0.595313 0.595313,0.504029 c 0.559445,0.473662 0.715761,0.686596 0.504028,0.686596 -0.05021,0 -0.318098,-0.26789 -0.595312,-0.595312 z m 45.1366,0.495416 c 0,-0.05494 0.20836,-0.2633 0.46302,-0.463021 0.41964,-0.329107 0.429,-0.319749 0.0999,0.0999 -0.34564,0.44073 -0.56291,0.580888 -0.56291,0.363125 z M 17.499168,94.465701 16.857736,93.738097 17.58534,94.379529 c 0.680056,0.599516 0.84894,0.813776 0.641432,0.813776 -0.04739,0 -0.374814,-0.327422 -0.727604,-0.727604 z m 4.782527,0.06615 c 0.341775,-0.363802 0.680939,-0.661459 0.7537,-0.661459 0.07276,0 -0.147341,0.297657 -0.489117,0.661459 -0.341776,0.363802 -0.68094,0.661458 -0.7537,0.661458 -0.07276,0 0.147341,-0.297656 0.489117,-0.661458 z m 56.091668,0.561562 c 0,-0.05494 0.208359,-0.2633 0.463021,-0.463021 0.419645,-0.329107 0.429003,-0.319749 0.0999,0.0999 -0.345644,0.44073 -0.562917,0.580888 -0.562917,0.363125 z m 55.277897,-0.627708 -0.64144,-0.727604 0.72761,0.641432 c 0.40018,0.35279 0.7276,0.680212 0.7276,0.727604 0,0.207507 -0.21426,0.03862 -0.81377,-0.641432 z M 99.54003,94.267263 c 0.341776,-0.363802 0.68094,-0.661458 0.7537,-0.661458 0.0728,0 -0.14734,0.297656 -0.489116,0.661458 -0.341776,0.363802 -0.68094,0.661459 -0.7537,0.661459 -0.07276,0 0.147341,-0.297657 0.489116,-0.661459 z m -108.2145863,0.0324 c 0,-0.05494 0.2083593,-0.2633 0.4630208,-0.463021 0.419644,-0.329107 0.4290023,-0.319749 0.099895,0.0999 -0.3456435,0.44073 -0.5629156,0.580888 -0.5629156,0.363125 z m 52.9166683,0 c 0,-0.05494 0.208359,-0.2633 0.463021,-0.463021 0.419645,-0.329107 0.429003,-0.319749 0.0999,0.0999 -0.345644,0.44073 -0.562917,0.580888 -0.562917,0.363125 z m 29.368751,-2.116667 c 0,-0.05494 0.208359,-0.2633 0.463021,-0.463021 0.419645,-0.329107 0.429003,-0.319749 0.0999,0.0999 -0.345644,0.44073 -0.562917,0.580888 -0.562917,0.363125 z m 37.677987,-2.3475 -0.50403,-0.595312 0.59531,0.504029 c 0.55945,0.473662 0.71577,0.686596 0.50403,0.686596 -0.0502,0 -0.31809,-0.267891 -0.59531,-0.595313 z M -8.4437219,89.438617 c -0.3291076,-0.419645 -0.3197493,-0.429003 0.099895,-0.0999 0.2546615,0.199721 0.4630209,0.408081 0.4630209,0.463021 0,0.217763 -0.2172722,0.0776 -0.5629156,-0.363125 z m 52.9166669,0 c -0.329107,-0.419645 -0.319749,-0.429003 0.0999,-0.0999 0.254662,0.199721 0.463021,0.408081 0.463021,0.463021 0,0.217763 -0.217273,0.0776 -0.562917,-0.363125 z m -48.5424315,-1.190624 -0.504028,-0.595313 0.5953125,0.504029 c 0.5594469,0.473662 0.7157617,0.686596 0.5040281,0.686596 -0.050207,0 -0.3180972,-0.267891 -0.5953126,-0.595312 z m 52.9166685,0 -0.504028,-0.595313 0.595312,0.504029 c 0.559446,0.473662 0.715762,0.686596 0.504029,0.686596 -0.05021,0 -0.318098,-0.267891 -0.595313,-0.595312 z M 17.519194,86.06518 c 0.341776,-0.363802 0.68094,-0.661458 0.753701,-0.661458 0.07276,0 -0.147342,0.297656 -0.489117,0.661458 -0.341776,0.363802 -0.68094,0.661458 -0.7537,0.661458 -0.07276,0 0.147341,-0.297656 0.489116,-0.661458 z m 4.742474,-0.06615 -0.641432,-0.727604 0.727604,0.641432 c 0.680056,0.599517 0.84894,0.813776 0.641433,0.813776 -0.04739,0 -0.374815,-0.327422 -0.727605,-0.727604 z m 116.543852,-0.132291 -0.50403,-0.595313 0.59531,0.504029 c 0.55945,0.473662 0.71576,0.686596 0.50403,0.686596 -0.0502,0 -0.3181,-0.267891 -0.59531,-0.595312 z M -4.7058062,85.536013 c 0.3417742,-0.363802 0.6809391,-0.661458 0.7536995,-0.661458 0.07276,0 -0.147342,0.297656 -0.4891162,0.661458 -0.3417742,0.363802 -0.6809391,0.661459 -0.7536995,0.661459 -0.07276,0 0.147342,-0.297657 0.4891162,-0.661459 z m 52.9166682,0 c 0.341776,-0.363802 0.68094,-0.661458 0.7537,-0.661458 0.07276,0 -0.147341,0.297656 -0.489117,0.661458 -0.341775,0.363802 -0.680939,0.661459 -0.7537,0.661459 -0.07276,0 0.147342,-0.297657 0.489117,-0.661459 z m 30.922501,0.198438 c -0.329107,-0.419645 -0.319749,-0.429003 0.0999,-0.0999 0.254661,0.19972 0.463021,0.40808 0.463021,0.463021 0,0.217762 -0.217273,0.0776 -0.562917,-0.363125 z m 63.124427,-1.455208 -1.04588,-1.12448 1.12448,1.045885 c 1.04575,0.972661 1.24606,1.203074 1.04588,1.203074 -0.0432,0 -0.54924,-0.506016 -1.12448,-1.124479 z M 12.756694,85.056348 c 0,-0.04554 0.386953,-0.432488 0.859896,-0.859896 l 0.859896,-0.777105 -0.777105,0.859896 c -0.724371,0.801544 -0.942687,0.981511 -0.942687,0.777105 z m 13.609397,-0.777105 -0.777105,-0.859896 0.859896,0.777105 c 0.801545,0.724371 0.981512,0.942686 0.777105,0.942686 -0.04553,0 -0.432488,-0.386953 -0.859896,-0.859895 z m 103.601019,-0.06615 c 0.34178,-0.363802 0.68094,-0.661459 0.7537,-0.661459 0.0728,0 -0.14734,0.297657 -0.48911,0.661459 -0.34178,0.363802 -0.68094,0.661458 -0.7537,0.661458 -0.0728,0 0.14734,-0.297656 0.48911,-0.661458 z m -47.115856,-0.330729 -0.641432,-0.727605 0.727604,0.641432 c 0.680056,0.599517 0.848939,0.813777 0.641432,0.813777 -0.04739,0 -0.374814,-0.327422 -0.727604,-0.727604 z m -21.278933,-0.33073 c 0.26339,-0.291041 0.538422,-0.529166 0.611182,-0.529166 0.07276,0 -0.08321,0.238125 -0.346599,0.529166 -0.26339,0.291042 -0.538422,0.529167 -0.611182,0.529167 -0.07276,0 0.08321,-0.238125 0.346599,-0.529167 z m -66.4355575,-4.828645 -0.5040281,-0.595313 0.5953125,0.504029 c 0.559447,0.473662 0.7157618,0.686596 0.5040281,0.686596 -0.050206,0 -0.3180971,-0.267891 -0.5953125,-0.595312 z m 52.9166685,0 -0.504028,-0.595313 0.595312,0.504029 c 0.327422,0.277214 0.595313,0.545105 0.595313,0.595312 0,0.211733 -0.212934,0.05542 -0.686597,-0.504028 z" style="fill:#898989;fill-opacity:1;stroke-width:1"/><path id="path26" d="M -28.78289,88.44643 V 43.864139 h 4.233333 4.233334 v 1.058333 1.058333 h -3.042709 -3.042708 v 42.465625 42.46562 h 3.042708 3.042709 v 1.05834 1.05833 h -4.233334 -4.233333 z m 200.28959,43.52396 v -1.05834 h 3.04271 3.04271 V 88.44643 45.980805 h -3.04271 -3.04271 v -1.058333 -1.058333 h 4.23333 4.23334 v 44.582291 44.58229 h -4.23334 -4.23333 z M 16.832048,98.091683 c -2.0671,-0.655399 -3.794604,-2.15275 -4.629695,-4.012888 -0.898777,-2.001988 -0.898777,-5.558575 0,-7.560564 2.703909,-6.022853 12.956857,-6.022853 15.660767,0 0.898776,2.001989 0.898776,5.558576 0,7.560564 -1.662184,3.702452 -6.481157,5.4555 -11.031072,4.012888 z m 5.472634,-3.316057 c 1.111768,-1.006134 1.416764,-1.969953 1.416764,-4.477113 0,-2.50716 -0.304996,-3.470978 -1.416764,-4.477112 -0.703525,-0.636683 -3.057867,-0.848762 -3.983795,-0.358865 -1.003776,0.531087 -1.806768,1.93635 -2.002739,3.504856 -0.358662,2.870626 0.444037,5.342406 2.002739,6.167099 0.925928,0.489897 3.28027,0.277818 3.983795,-0.358865 z m 49.892033,3.471328 c -2.830944,-1.00937 -4.117861,-4.207399 -2.793772,-6.942603 1.002823,-2.071558 3.529793,-2.990213 8.225263,-2.990213 h 2.332657 v -0.938067 c 0,-1.289306 -0.899641,-2.141034 -2.517772,-2.383689 -1.624518,-0.24361 -4.731221,0.02066 -6.157154,0.523759 l -1.114658,0.393274 v -1.553838 -1.553839 l 1.389063,-0.299792 c 0.763984,-0.164885 2.520156,-0.368712 3.902604,-0.452945 4.465498,-0.272092 7.114064,0.822955 8.466667,3.500527 0.632712,1.252493 0.665478,1.553763 0.75392,6.931798 l 0.09246,5.622396 h -2.407568 -2.407566 v -1.058334 c 0,-0.614817 -0.126198,-1.058333 -0.301141,-1.058333 -0.165626,0 -0.808005,0.467212 -1.427506,1.038249 -1.683266,1.55158 -3.869211,1.994037 -6.035501,1.22165 z m 5.889625,-2.987913 c 1.087443,-0.556729 1.874523,-1.9435 1.874523,-3.302754 v -0.996315 l -2.182812,5.29e-4 c -1.54798,2.64e-4 -2.452135,0.134953 -3.108855,0.463021 -0.857001,0.428119 -0.931928,0.563988 -1.004998,1.822391 -0.07011,1.207347 5.29e-4,1.422385 0.630994,1.91823 0.883052,0.69461 2.538918,0.73611 3.791148,0.09502 z m 15.393121,3.032133 C 92.222002,97.88975 90.953235,96.529599 90.445073,95.03823 90.10098,94.028371 90.01503,92.648617 90.01503,88.134714 v -5.641409 h 2.248959 2.248958 l 0.01151,4.696354 c 0.01339,5.457828 0.211831,6.834246 1.085535,7.52951 0.820534,0.652952 3.136258,0.531029 3.953013,-0.208127 1.275495,-1.154305 1.416775,-1.811012 1.518185,-7.056799 l 0.0959,-4.960938 h 2.22418 2.22417 v 7.805208 7.805209 h -2.24895 -2.24896 V 97.17768 c 0,-0.723723 -0.10665,-0.926042 -0.48816,-0.926042 -0.26849,0 -0.714974,0.255 -0.992188,0.566666 -1.301311,1.463035 -4.102846,2.13205 -6.167724,1.47287 z m 20.612649,0.07576 c -0.65484,-0.112046 -1.69664,-0.340754 -2.3151,-0.508243 l -1.12448,-0.304528 v -1.536237 -1.536237 l 1.52135,0.536274 c 1.13151,0.398854 2.22204,0.540882 4.25567,0.554249 2.56493,0.01685 2.76572,-0.02072 3.24115,-0.60665 0.27876,-0.343546 0.50683,-0.909093 0.50683,-1.256771 0,-1.130165 -0.7684,-1.554117 -3.68429,-2.032757 -4.22685,-0.693832 -5.79689,-1.832827 -6.04194,-4.383174 -0.3845,-4.001561 3.35887,-5.944066 9.80233,-5.086602 3.2179,0.428223 3.0989,0.343908 3.0989,2.195751 0,1.403485 -0.0537,1.566817 -0.46302,1.409081 -1.18534,-0.456756 -3.77829,-0.929079 -5.11989,-0.932619 -2.65358,-0.007 -3.69163,0.701688 -3.30195,2.254292 0.17815,0.709829 0.67154,0.882094 4.51921,1.577848 2.81441,0.508915 4.26392,1.246156 4.93465,2.509821 0.58329,1.098924 0.6389,3.102756 0.12053,4.343374 -1.00358,2.401919 -5.27003,3.603874 -9.94995,2.803128 z m 19.82506,-0.09582 c -3.78351,-1.020143 -6.06672,-4.020627 -6.06672,-7.972592 0,-5.164013 4.08103,-8.748471 9.39225,-8.24942 2.11776,0.198991 3.36701,0.760119 4.91419,2.207324 1.46804,1.373179 2.19059,3.003714 2.47229,5.579075 l 0.18088,1.653646 h -6.09856 -6.09855 l 10e-4,0.727604 c 0.001,0.929299 0.82431,2.282619 1.76127,2.896042 1.1803,0.772724 5.22733,0.648031 7.69659,-0.237146 l 1.91823,-0.687639 v 1.553594 1.553596 l -1.41689,0.411901 c -3.24595,0.943623 -6.46915,1.153644 -8.65597,0.564015 z m 5.83953,-10.204326 c 0,-1.230389 -0.44738,-2.091825 -1.38247,-2.661946 -1.83547,-1.119087 -4.42037,-0.414351 -5.25987,1.434026 -0.92159,2.029129 -0.9594,2.004446 3.07046,2.004446 h 3.57188 z M -19.787057,87.519235 V 76.885234 l 5.754688,0.121187 c 3.2432,0.0683 6.1724182,0.254021 6.7118526,0.425553 1.5555294,0.494633 2.7075718,1.415677 3.3423144,2.672133 1.0691778,2.11641 0.6432079,4.340921 -1.0971483,5.729555 -0.9392563,0.749435 -1.2455954,1.422143 -0.6476177,1.422143 0.6059807,0 2.0918292,1.376016 2.6345206,2.439778 0.4419992,0.866387 0.533881,1.444742 0.4540324,2.857881 -0.1352153,2.392969 -0.850691,3.439208 -3.1234259,4.567391 l -1.7134931,0.850575 -6.157861,0.0909 -6.157862,0.0909 z m 10.702827,7.035011 c 0.4929359,-0.205962 1.0248929,-0.614854 1.1821271,-0.908648 0.3692163,-0.689888 0.3692163,-3.093865 0,-3.783753 -0.4714547,-0.880922 -1.8720129,-1.283123 -4.4681221,-1.283123 h -2.389748 v 3.175 3.175 h 2.389748 c 1.462144,0 2.7376351,-0.145357 3.285995,-0.374476 z m -0.4029996,-9.537612 c 0.4117014,-0.2129 0.8225076,-0.579827 0.9129025,-0.815391 0.2120968,-0.552717 0.2120968,-2.333992 0,-2.88671 -0.3136895,-0.817462 -1.5699569,-1.202478 -3.9235489,-1.202478 h -2.262097 v 2.645833 2.645834 h 2.262097 c 1.46785,0 2.5249216,-0.135911 3.0106464,-0.387088 z M 2.437944,90.298513 v -7.805208 h 2.3812501 2.3812501 v 7.805208 7.805209 H 4.8191941 2.437944 Z M 33.129612,87.519235 V 76.885234 l 5.754687,0.121187 c 3.243199,0.0683 6.172417,0.254021 6.711853,0.425553 1.55553,0.494633 2.707571,1.415677 3.342314,2.672133 1.069179,2.11641 0.643208,4.340921 -1.097147,5.729555 -0.939258,0.749435 -1.245595,1.422143 -0.647618,1.422143 0.60598,0 2.09183,1.376016 2.634519,2.439778 0.442,0.866387 0.533882,1.444742 0.454033,2.857881 -0.135215,2.392969 -0.850691,3.439208 -3.123425,4.567391 l -1.713494,0.850575 -6.15786,0.0909 -6.157862,0.0909 z m 10.702827,7.035011 c 1.138791,-0.475818 1.468006,-1.103863 1.468006,-2.800524 0,-0.746739 -0.128645,-1.598084 -0.285879,-1.891877 -0.471456,-0.880922 -1.872015,-1.283123 -4.468122,-1.283123 h -2.389749 v 3.175 3.175 h 2.389749 c 1.462143,0 2.737636,-0.145357 3.285995,-0.374476 z m -0.403,-9.537612 c 0.875784,-0.452888 1.077256,-0.875327 1.077256,-2.258746 0,-0.558278 -0.07396,-1.207788 -0.164354,-1.443355 -0.31369,-0.817462 -1.569958,-1.202478 -3.923548,-1.202478 h -2.262098 v 2.645833 2.645834 h 2.262098 c 1.46785,0 2.524921,-0.135911 3.010646,-0.387088 z m 11.925173,5.281879 v -7.805208 h 2.38125 2.381251 v 1.190625 c 0,0.654844 0.115929,1.190625 0.257619,1.190625 0.141692,0 0.770694,-0.513072 1.397783,-1.140161 1.208268,-1.208267 2.906758,-1.886998 4.319215,-1.725993 0.764278,0.08712 0.773054,0.107489 0.849296,1.971712 l 0.07704,1.883679 -1.820606,-0.130262 c -2.230321,-0.159581 -3.472429,0.339963 -4.348575,1.74888 -0.555549,0.893368 -0.60587,1.317903 -0.686642,5.792666 l -0.08716,4.828646 h -2.360237 -2.360237 z m 98.160418,-8.598958 v -3.175 h -1.32291 c -1.29352,0 -1.32292,-0.01765 -1.32292,-0.79375 v -0.79375 h 3.43958 3.43959 v 0.79375 c 0,0.764352 -0.0441,0.79375 -1.19063,0.79375 h -1.19062 v 3.175 3.175 h -0.92605 -0.92604 z m 6.61459,-0.79375 v -3.96875 h 1.3191 1.31911 l 0.80137,1.5875 c 0.44075,0.873125 0.97653,1.5875 1.19062,1.5875 0.2141,0 0.74988,-0.714375 1.19063,-1.5875 l 0.80137,-1.5875 h 1.31911 1.3191 v 3.96875 3.96875 h -0.92604 -0.92604 v -3.042708 c 0,-3.627229 -0.24859,-3.83921 -1.55023,-1.321938 -0.48882,0.945346 -1.0246,1.717807 -1.19062,1.71658 -0.16602,-0.0013 -0.7124,-0.775134 -1.21417,-1.719792 -1.3436,-2.529546 -1.60123,-2.316337 -1.60123,1.32515 v 3.042708 h -0.92604 -0.92604 z M 2.437944,77.995388 v -1.852083 h 2.3812501 2.3812501 v 1.852083 1.852084 H 4.8191941 2.437944 Z" style="fill:#333;fill-opacity:1;stroke-width:1"/></g></g></svg>